<?xml version="1.0" encoding="UTF-8"?>
<svg id="Layer_1" xmlns="http://www.w3.org/2000/svg" version="1.1" viewBox="0 0 384 384">
  <!-- Generator: Adobe Illustrator 29.5.1, SVG Export Plug-In . SVG Version: 2.1.0 Build 141)  -->
  <defs>
    <style>
      .st0 {
        fill: #172437;
      }
    </style>
  </defs>
  <path class="st0" d="M384,39.7v305.4c-3.8,20.4-18.6,35.2-39,38.9H39c-20.4-3.7-35.3-18.6-39-38.9V39.7C3.8,19,19.6,3.1,40.9.8h300.8c20.5.9,39.9,18.5,42.3,38.9ZM253.5,354.1h88.1c5.8,0,13-8.7,12.4-14.6V45.3c-.3-8.2-6.4-14.3-14.6-14.6H45.3c-8.5,0-15,6.1-15.4,14.6v294.2c-.6,5.9,6.6,14.6,12.4,14.6h164.6v-122h-45v-46.4h45v-38.5c0-28.3,33.4-62.5,61.9-62.5h37.9v46.4h-34.9c-6.8,0-18.4,11.6-18.4,18.3v36.3h54l-7.5,46.4h-46.5v122Z"/>
</svg>