<?xml version="1.0" encoding="utf-8"?>
<!-- Generator: Adobe Illustrator 27.5.0, SVG Export Plug-In . SVG Version: 6.00 Build 0)  -->
<svg version="1.1" id="Layer_1" xmlns="http://www.w3.org/2000/svg" xmlns:xlink="http://www.w3.org/1999/xlink" x="0px" y="0px"
	 viewBox="0 0 512 512" style="enable-background:new 0 0 512 512;" xml:space="preserve">
<style type="text/css">
	.st0{clip-path:url(#SVGID_00000109001614719871966770000004425536468049174957_);}
	.st1{fill:#00B1C3;}
</style>
<g>
	<defs>
		<rect id="SVGID_1_" x="1" y="1" width="510" height="510"/>
	</defs>
	<clipPath id="SVGID_00000138537013719179043740000005690629233356509102_">
		<use xlink:href="#SVGID_1_"  style="overflow:visible;"/>
	</clipPath>
	<g id="Group_96" style="clip-path:url(#SVGID_00000138537013719179043740000005690629233356509102_);">
		<path id="Path_87" class="st1" d="M256.1,125.3c-72.2,0-130.7,58.5-130.7,130.7s58.5,130.7,130.7,130.7S386.7,328.2,386.7,256
			c0.1-72.1-58.3-130.6-130.4-130.7C256.2,125.3,256.2,125.3,256.1,125.3 M256.1,341.1c-46.9,0-85-38.1-85-85c0-47,38.1-85,85-85
			c46.9,0,85,38,85,84.9C341,302.9,303,340.9,256.1,341.1L256.1,341.1z M422.6,119.9c0,16.8-13.7,30.5-30.5,30.5
			s-30.5-13.7-30.5-30.5s13.7-30.5,30.5-30.5l0,0c16.8,0,30.5,13.5,30.5,30.3C422.6,119.8,422.6,119.8,422.6,119.9 M509.2,150.8
			c0.8-39.6-14-78-41.2-106.8C439.1,16.8,400.8,2,361.1,2.8c-42.1-2.4-168.3-2.4-210.3,0C111.2,2,72.9,16.8,44,43.9
			C16.8,72.7,2,111.1,2.8,150.8c-2.4,42.1-2.4,168.3,0,210.4C2,400.8,16.8,439.2,44,468c28.9,27.1,67.2,41.9,106.8,41.2
			c42.1,2.4,168.3,2.4,210.3,0c39.6,0.8,78-14,106.8-41.2c27.1-28.9,41.9-67.2,41.2-106.8c2.4-42.1,2.4-168.2,0-210.4 M454.7,406.3
			c-8.7,22.2-26.3,39.7-48.5,48.5C372.6,468.1,293.1,465,255.9,465s-116.8,3-150.3-10.2c-22.2-8.7-39.7-26.3-48.5-48.5
			C44,372.8,47,293.1,47,256s-3-116.9,10.2-150.3c8.7-22.2,26.3-39.7,48.5-48.5c33.6-13.3,113.1-10.2,150.3-10.2s116.8-3,150.3,10.2
			c22.2,8.7,39.7,26.3,48.5,48.5c13.3,33.6,10.2,113.2,10.2,150.3s3.1,116.9-10.2,150.3"/>
	</g>
</g>
</svg>
