<?xml version="1.0" encoding="UTF-8"?>
<svg id="Layer_1" xmlns="http://www.w3.org/2000/svg" version="1.1" viewBox="0 0 329.1 329.1">
  <!-- Generator: Adobe Illustrator 29.5.1, SVG Export Plug-In . SVG Version: 2.1.0 Build 141)  -->
  <defs>
    <style>
      .st0 {
        fill: #172437;
      }
    </style>
  </defs>
  <path class="st0" d="M252.8,329.1H75.7l-17.3-3.5c-26.3-8-47.6-29.4-55.1-55.9l-3.3-16.3V76.4C4,35.4,36.6,3.1,77.9.6h173.3c41.4,2.7,74.5,36,77.3,77.3v173.3c-2,40.4-35.3,74.8-75.7,77.9ZM75.6,28.4c-25.1,2.9-45,23.3-47.9,48.3v175.7c2.7,25.9,23.6,46.8,49.6,49.1h174.5c26-2.7,46.7-23.7,49.1-49.7V77.3c-2.8-25.7-23.3-46.5-49.1-49.1l-176.2.2Z"/>
  <path class="st0" d="M222.4,106.7c43.4,43.4,24.7,119-33.9,136.6-65.5,19.6-124.7-43.2-101.1-107.5,20.4-55.4,93.1-71,135-29.1ZM157.7,110.5c-37.8,3.7-59.5,46.6-41.9,80,22.4,42.5,86.7,36.9,100.6-9.1,11.7-38.7-18.7-74.8-58.7-70.9Z"/>
  <path class="st0" d="M252.6,55.4c26-.8,27.9,38.2,3.7,40.9-29.4,3.2-31.4-40-3.7-40.9Z"/>
</svg>