<?xml version="1.0" encoding="UTF-8"?>
<svg xmlns="http://www.w3.org/2000/svg" xmlns:xlink="http://www.w3.org/1999/xlink" version="1.1" viewBox="0 0 200 200">
  <defs>
    <style>
      .cls-1 {
        fill: none;
      }

      .cls-2 {
        fill: #8dc63f;
      }

      .cls-3 {
        fill: #00a79d;
      }

      .cls-4 {
        fill: #913233;
      }

      .cls-5 {
        fill: url(#linear-gradient);
      }

      .cls-6 {
        clip-path: url(#clippath-1);
      }

      .cls-7 {
        clip-path: url(#clippath-2);
      }

      .cls-8 {
        fill: #fff;
      }

      .cls-9 {
        clip-path: url(#clippath);
      }
    </style>
    <clipPath id="clippath">
      <rect class="cls-1" x="-323.5" y="-198.3" width="841.9" height="595.3"/>
    </clipPath>
    <clipPath id="clippath-1">
      <path class="cls-1" d="M91.9,187.5c-9.1-.3-18-2-26.6-5.2-6.4-2.4-12.4-5.5-18-9.2-.8,1.3-1.8,2.6-3,3.6,5.9,4.1,12.4,7.4,19.4,10,9.1,3.4,18.5,5.2,28.1,5.5,37.2,1.1,70.9-21,84.8-55.3-1.6-.2-3.1-.7-4.5-1.4-13.3,32.3-45.1,53.1-80.2,52M46,106.5c-4.9,0-8.5,3.3-9.1,8.2h17.8c-.6-5-4-8.2-8.8-8.2v-.5.5ZM89.1,106.5c-4.9,0-8.5,3.3-9.1,8.2h17.8c-.6-5-4-8.2-8.8-8.2v-.5.5ZM108.2,83.7c-3.2,0-4.6.9-4.6,3,0,2,1.7,3.3,4.4,3.3,3.5,0,6.1-1.8,6.4-4.3v-2.1s-6.1,0-6.1,0ZM35,116.1c0-3.2,1.1-6.1,3.1-8.2,2-2.1,4.8-3.2,7.9-3.2,6.3,0,10.6,4.7,10.7,11.4v.5s-19.8,0-19.8,0c.2,5.4,3.9,9.1,9.2,9.1,3,0,5.6-1.1,7.4-3l.4-.4,1.3,1.3-.3.4c-2.1,2.3-5.2,3.6-8.7,3.6h0c-6.4,0-11-4.8-11-11.4M75.6,104.7h2.1l-9.3,22.9h-1.6l-9.4-22.8h2.1s8.1,20,8.1,20l8-20.1ZM78.1,116.1c0-3.2,1.1-6.1,3.1-8.2,2-2.1,4.8-3.2,7.9-3.2,6.3,0,10.6,4.7,10.7,11.4v.5h-19.8c.2,5.4,3.9,9.1,9.2,9.1,3,0,5.6-1.1,7.4-3l.4-.4,1.3,1.3-.3.4c-2.1,2.3-5.2,3.6-8.7,3.6h0c-6.4,0-11-4.8-11-11.4M116,104.6c5.7,0,9.1,3.4,9.1,9.1v13.7s-1.8,0-1.8,0v-13.7c0-4.6-2.7-7.3-7.2-7.3-5.1.1-8.3,3.3-8.7,8.7v12.3s-1.8,0-1.8,0v-22.9s1.8,0,1.8,0v4.5c1.8-2.8,4.8-4.4,8.7-4.5M130.1,105h3.2s0-5.2,0-5.2h1.8s0,5.2,0,5.2h7.7s0,1.8,0,1.8h-7.7s0,14.1,0,14.1c0,3.1,1.1,4.7,3.2,4.7,1.4,0,2.6-.5,3.6-1.3l.4-.3,1.1,1.5-.4.3c-1.4,1-3,1.6-4.6,1.7h-.1c-3.3,0-5.1-2.3-5.1-6.5v-14.1s-3.2,0-3.2,0v-1.8ZM43.4,90.2c2.1,0,3.7-.7,3.7-2.4,0-4.6-11.8-2-11.8-10.1,0-4.6,4-6.5,8.3-6.5,2.8,0,5.8.8,7.9,2.3l-1.8,3.6c-2-1.2-4.5-2-6.5-2-1.9,0-3.3.6-3.3,2.2,0,4.1,12,1.9,11.9,10,0,4.6-4.1,6.7-8.6,6.7-3.3,0-6.8-1.1-9-3.1l1.7-3.5c1.9,1.7,5.1,2.8,7.5,2.8h0M86.1,71.1c5.2,0,8.2,3.3,8.3,8.7v14s-4.8,0-4.8,0v-12.6c0-3.4-2.1-5.5-5.3-5.5-3.8.1-6.2,3.1-6.2,7v11.1s-4.8,0-4.8,0v-12.6c0-3.4-2-5.5-5.3-5.5-3.9.1-6.3,3.1-6.2,7v11.1s-4.8,0-4.8,0v-22.5s4.8,0,4.8,0v4.4c1.6-3.2,4.4-4.5,8.2-4.5,4,0,6.8,2,7.8,5.4,1.4-3.8,4.4-5.4,8.5-5.4M100.3,73.9c3.1-1.9,5.4-2.8,9.7-2.8,5.8,0,9,2.9,9.1,7.9v14.8c0,0-4.7,0-4.7,0v-2.7c-1.6,2-4.2,3-7.4,3-4.9,0-7.9-3-7.9-7,0-4.1,3.1-6.7,8.5-6.8h6.8s0-.7,0-.7c0-2.8-1.8-4.5-5.4-4.5-2.2,0-4.4.8-6.6,2.3l-2-3.4ZM138.2,71v4.6c-4.5-.2-7.4,2.4-7.8,6.3v11.7s-4.8,0-4.8,0v-22.5s4.8,0,4.8,0v4.5c1.5-3,4.2-4.7,7.8-4.7M140,72h3.2s0-6.2,0-6.2h4.8s0,6.2,0,6.2h6.6s0,3.6,0,3.6h-6.6s0,10.8,0,10.8c0,2.3.9,3,2.4,3,1,0,2.1-.3,3.4-1l1.2,3.7c-1.8,1.1-3.6,1.7-5.5,1.7-3.4,0-6.3-1.9-6.3-6.5v-11.7s-3.2,0-3.2,0v-3.6ZM91.2,24.9c-1.5,4.3-4.8,8-9.4,9.9-2.2.9-4.5,1.3-6.9,1.3-4.3-.1-8.3-1.9-11.3-4.9-19.2,8.2-35.1,23.9-43,45-9.2,24.8-5.1,51.3,8.8,71.7,1.4-.3,2.7-.5,4.2-.4,6.6.2,12.5,4.3,15,10.4,1.4,3.4,1.6,6.9.8,10.2,5.4,3.8,11.3,6.9,17.7,9.3,40.2,14.9,84.8-5.2,100.5-44.9-1.7-1.6-3.1-3.6-4-5.8-3.5-8.5.6-18.4,9.1-21.9.1,0,.3,0,.4-.2.5-32.4-19.3-63-51.4-74.9-9-3.3-18.2-4.9-27.3-4.9s-2.2,0-3.3,0M11.4,72.8c-8.2,22.2-7.3,46.3,2.6,67.8,2,4.3,4.3,8.4,6.9,12.3,1.1-1.1,2.3-2.1,3.6-3-2.4-3.6-4.5-7.3-6.3-11.3-9.4-20.4-10.2-43.2-2.4-64.2,8.1-21.8,24.4-38.6,44.7-47.6-.2-.4-.4-.7-.5-1.1-.5-1.1-.8-2.2-1-3.3-21.6,9.4-39,27.3-47.6,50.4M91.6,15c.4,1.5.6,3.1.6,4.7,1.6,0,3.2,0,4.9,0,9.1.3,18,2,26.6,5.2,33.8,12.5,54.8,44.6,54.8,78.7.4,0,.8,0,1.2,0,1.2,0,2.3.2,3.5.5.2-36.2-22-70.3-57.8-83.6-9.1-3.4-18.5-5.2-28.1-5.5-.8,0-1.5,0-2.3,0s-2.2,0-3.2,0"/>
    </clipPath>
    <linearGradient id="linear-gradient" x1="-323.5" y1="396" x2="-322.5" y2="396" gradientTransform="translate(57359.5 70309.9) scale(177.3 -177.3)" gradientUnits="userSpaceOnUse">
      <stop offset="0" stop-color="#636466"/>
      <stop offset="1" stop-color="#414042"/>
    </linearGradient>
    <clipPath id="clippath-2">
      <rect class="cls-1" x="-323.5" y="-198.3" width="841.9" height="595.3"/>
    </clipPath>
  </defs>
  <!-- Generator: Adobe Illustrator 28.6.0, SVG Export Plug-In . SVG Version: 1.2.0 Build 709)  -->
  <g>
    <g id="Layer_1">
      <g class="cls-9">
        <path class="cls-8" d="M94.6,194.8c-19.5,0-38-6-53.6-17.4-.6.4-1.3.7-1.9,1-1.9.8-3.8,1.2-5.8,1.2s-.3,0-.5,0c-6-.2-11.4-3.9-13.6-9.4-1.8-4.5-1.4-9.6,1-13.7-11-15.5-16.8-33.7-16.8-52.8s5.7-36.9,16.5-52.3c10.2-14.5,24.2-25.7,40.5-32.3.1-6,3.8-11.5,9.4-13.8,1.9-.8,3.8-1.2,5.8-1.2s.3,0,.5,0c5.6.2,10.7,3.5,13.2,8.5,1.8-.1,3.6-.2,5.4-.2,50.3,0,91.2,40.9,91.2,91.2s0,2,0,2.9c3.4,1.6,6.1,4.4,7.6,8,1.5,3.8,1.5,7.9,0,11.7-1.6,3.8-4.5,6.7-8.3,8.2-1.6.7-3.3,1-5,1.1-13.3,35.5-47.4,59.2-85.5,59.2"/>
        <path class="cls-8" d="M75.5,6.6c.1,0,.3,0,.4,0,4.9.1,9.4,3.1,11.4,7.9,0,.2.2.5.2.7,2.3-.2,4.6-.3,7-.3,49,0,88.7,39.7,88.7,88.7s0,3.1-.1,4.6c3.4,1.1,6.4,3.7,7.9,7.3,2.7,6.5-.4,14-6.9,16.6-1.6.7-3.2,1-4.9,1s-.3,0-.4,0c-.2,0-.4,0-.6,0-12.1,34.5-45,59.3-83.7,59.3s-38.7-6.7-53.5-18c-.9.7-1.9,1.3-2.9,1.7-1.6.7-3.2,1-4.8,1s-.3,0-.4,0c-4.9-.1-9.4-3.1-11.4-7.9-1.8-4.4-1-9.3,1.8-12.8-10.9-14.7-17.4-33-17.4-52.8,0-37.8,23.7-70.1,57-82.9-.6-5.5,2.4-11,7.8-13.2,1.6-.7,3.2-1,4.9-1M75.5,1.6c-2.3,0-4.6.5-6.8,1.3-6,2.5-10.1,8.1-10.9,14.4-16.2,6.9-30,18.1-40.2,32.6C6.7,65.7.8,84.3.8,103.6s5.7,37.3,16.4,53c-2.2,4.5-2.4,9.8-.4,14.5,2.7,6.5,8.9,10.8,15.9,11,.2,0,.4,0,.5,0,2.3,0,4.6-.5,6.8-1.3.3-.1.5-.2.8-.3,15.8,11.1,34.3,17,53.8,17,38.6,0,73.2-23.7,87.2-59.4,1.4-.2,2.8-.6,4.2-1.2,9.1-3.7,13.4-14.1,9.7-23.2-1.5-3.6-4.1-6.6-7.4-8.5,0-.5,0-1,0-1.5,0-51.7-42-93.7-93.7-93.7s-2.6,0-3.9,0c-3.1-5-8.5-8.2-14.5-8.4-.2,0-.4,0-.5,0"/>
      </g>
      <g class="cls-6">
        <rect class="cls-5" x="3.1" y="15" width="180.1" height="178.4"/>
      </g>
      <g class="cls-7">
        <path class="cls-3" d="M87.2,14.5c-2-4.8-6.5-7.7-11.4-7.9-1.7,0-3.5.3-5.2,1-6.5,2.7-9.6,10.1-6.9,16.6,2,4.8,6.5,7.7,11.4,7.9,1.7,0,3.5-.3,5.2-1,6.5-2.7,9.6-10.1,6.9-16.6M80.7,21c-.9,2.9-4.1,4.5-7,3.6-2.9-.9-4.5-4.1-3.6-7,.9-2.9,4.1-4.5,7-3.6,2.9.9,4.5,4.1,3.6,7"/>
        <path class="cls-2" d="M190.9,115.5c-2-4.8-6.5-7.7-11.4-7.9-1.7,0-3.5.3-5.2,1-6.5,2.7-9.6,10.1-6.9,16.6,2,4.8,6.5,7.7,11.4,7.9,1.7,0,3.5-.3,5.2-1,6.5-2.7,9.6-10.1,6.9-16.6M184.4,122c-.9,2.9-4.1,4.5-7,3.6-2.9-.9-4.5-4.1-3.6-7,.9-2.9,4.1-4.5,7-3.6,2.9.9,4.5,4.1,3.6,7"/>
        <path class="cls-4" d="M44.9,159.4c-2-4.8-6.5-7.7-11.4-7.9-1.7,0-3.5.3-5.2,1-6.5,2.7-9.6,10.1-6.9,16.6,2,4.8,6.5,7.7,11.4,7.9,1.7,0,3.5-.3,5.2-1,6.5-2.7,9.6-10.1,6.9-16.6M38.4,166c-.9,2.9-4.1,4.5-7,3.6-2.9-.9-4.5-4.1-3.6-7,.9-2.9,4.1-4.5,7-3.6,2.9.9,4.5,4.1,3.6,7"/>
        <path class="cls-8" d="M100.7,149.9v2.8h-11.1v-2.2l5.7-5.4c1.3-1.2,1.5-2,1.5-2.7,0-1.2-.8-1.8-2.4-1.8s-2.3.5-3,1.5l-2.5-1.6c1.1-1.7,3.2-2.7,5.8-2.7s5.5,1.7,5.5,4.3-.4,2.7-2.5,4.6l-3.4,3.2h6.3Z"/>
        <path class="cls-8" d="M102.8,145.3c0-4.8,2.7-7.6,6.3-7.6s6.3,2.8,6.3,7.6-2.7,7.6-6.3,7.6-6.3-2.8-6.3-7.6M112,145.3c0-3.3-1.2-4.7-2.9-4.7s-2.9,1.4-2.9,4.7,1.2,4.7,2.9,4.7,2.9-1.4,2.9-4.7"/>
        <path class="cls-8" d="M128.6,149.9v2.8h-11.1v-2.2l5.7-5.4c1.3-1.2,1.5-2,1.5-2.7,0-1.2-.8-1.8-2.4-1.8s-2.3.5-3,1.5l-2.5-1.6c1.1-1.7,3.2-2.7,5.8-2.7s5.5,1.7,5.5,4.3-.4,2.7-2.5,4.6l-3.4,3.2h6.3Z"/>
        <polygon class="cls-8" points="144 149.6 141.6 149.6 141.6 152.7 138.3 152.7 138.3 149.6 130.4 149.6 130.4 147.3 137.3 138 140.9 138 134.5 146.8 138.4 146.8 138.4 144.1 141.6 144.1 141.6 146.8 144 146.8 144 149.6"/>
      </g>
    </g>
  </g>
</svg>